# xmcd
#
# Track frame offsets: 
#        150
#        13807
#        30313
#        55445
#        71681
#        91348
#        115000
#        134502
#        153331
#        170740
#        181386
#        198867
#        210129
#        218759
#        245676
#        264052
#        284230
#        306925
#        318866
#        340311
#
# Disc length: 4689 seconds
#
# Revision: 4
# Processed by: cddbd v1.5.2PL0 Copyright (c) Steve Scherf et al.
# Submitted via: ExactAudioCopy v1.1
#
DISCID=22124f14
DTITLE=divers - Music Maker - The last and lost blues survivors - CD1
DYEAR=2005
DGENRE=Blues
TTITLE0=Franck Edwards - My Baby's Gone
TTITLE1=Algia Mae Hinton - My Baby's Gone
TTITLE2=Neal Pattman - Shortin' Bread
TTITLE3=Captain Luke and Cool John - Waiter
TTITLE4=Guitar Gabriel - Came so Far
TTITLE5=Neal Pattman - Talkin' About You Baby
TTITLE6=Pura Fe' - Wait Till You Come Back Again
TTITLE7=Carl Rutherford - Long Black Limousine
TTITLE8=Cora Mae Bryant - Ticket Agent
TTITLE9=John Dee Holeman - Hambone
TTITLE10=Sol - Black Mattie
TTITLE11=Marie Manning - Hard Luck and Trouble
TTITLE12=Etta Baker - Johnson Boy
TTITLE13=Pura Fe' - Going Home
TTITLE14=Drink Small - Window Woman
TTITLE15=Mudcat - Savannah Hamma
TTITLE16=Jerry McCain - Super Woman
TTITLE17=Samuel Turner Stevens - Railroadin'&Gamblin'
TTITLE18=Sweet Batty - Coffee Drinkin' Blues
TTITLE19=Jack Owens - Keep on Grumblin'
EXTD=
EXTT0=
EXTT1=
EXTT2=
EXTT3=
EXTT4=
EXTT5=
EXTT6=
EXTT7=
EXTT8=
EXTT9=
EXTT10=
EXTT11=
EXTT12=
EXTT13=
EXTT14=
EXTT15=
EXTT16=
EXTT17=
EXTT18=
EXTT19=
PLAYORDER=
